{
  "accessors": [
    {
      "bufferView": 1,
      "componentType": 5126,
      "count": 1636,
      "max": [
        29.0,
        -28.0,
        10.437600135803223
      ],
      "min": [
        -5.0,
        -80.0,
        -44.0
      ],
      "type": "VEC3"
    },
    {
      "bufferView": 1,
      "byteOffset": 19632,
      "componentType": 5126,
      "count": 1636,
      "max": [
        0.9993399977684021,
        0.9943511486053467,
        0.9974962472915649
      ],
      "min": [
        -0.9999952912330627,
        -1.0,
        -0.9998863339424133
      ],
      "type": "VEC3"
    },
    {
      "bufferView": 0,
      "componentType": 5125,
      "count": 6495,
      "type": "SCALAR"
    },
    {
      "bufferView": 1,
      "byteOffset": 39264,
      "componentType": 5126,
      "count": 942,
      "max": [
        24.121000289916992,
        -80.0,
        3.0
      ],
      "min": [
        -1.0,
        -90.0,
        -17.06999969482422
      ],
      "type": "VEC3"
    },
    {
      "bufferView": 1,
      "byteOffset": 50568,
      "componentType": 5126,
      "count": 942,
      "max": [
        1.0,
        0.9999991059303284,
        0.999998927116394
      ],
      "min": [
        -0.9999999403953552,
        -0.9999991655349731,
        -0.999998927116394
      ],
      "type": "VEC3"
    },
    {
      "bufferView": 0,
      "byteOffset": 25980,
      "componentType": 5125,
      "count": 4320,
      "type": "SCALAR"
    },
    {
      "bufferView": 1,
      "byteOffset": 61872,
      "componentType": 5126,
      "count": 1310,
      "max": [
        61.0,
        -4.894999980926514,
        35.0
      ],
      "min": [
        -34.0,
        -25.14240074157715,
        -54.0
      ],
      "type": "VEC3"
    },
    {
      "bufferView": 1,
      "byteOffset": 77592,
      "componentType": 5126,
      "count": 1310,
      "max": [
        0.9999330639839172,
        0.9999533295631409,
        0.9999013543128967
      ],
      "min": [
        -1.0,
        -0.9999942779541016,
        -0.9999105930328369
      ],
      "type": "VEC3"
    },
    {
      "bufferView": 0,
      "byteOffset": 43260,
      "componentType": 5125,
      "count": 3720,
      "type": "SCALAR"
    },
    {
      "bufferView": 1,
      "byteOffset": 93312,
      "componentType": 5126,
      "count": 2102,
      "max": [
        35.38650131225586,
        -0.0,
        9.732399940490723
      ],
      "min": [
        -11.233699798583984,
        -52.707401275634766,
        -30.99250030517578
      ],
      "type": "VEC3"
    },
    {
      "bufferView": 1,
      "byteOffset": 118536,
      "componentType": 5126,
      "count": 2102,
      "max": [
        0.9935069680213928,
        0.9999996423721313,
        0.9989197850227356
      ],
      "min": [
        -0.9927379488945007,
        -0.7882696986198425,
        -0.9978694915771484
      ],
      "type": "VEC3"
    },
    {
      "bufferView": 0,
      "byteOffset": 58140,
      "componentType": 5125,
      "count": 7878,
      "type": "SCALAR"
    },
    {
      "bufferView": 1,
      "byteOffset": 143760,
      "componentType": 5126,
      "count": 1987,
      "max": [
        25.0,
        -24.98200035095215,
        9.0
      ],
      "min": [
        0.0,
        -44.79710006713867,
        4.0
      ],
      "type": "VEC3"
    },
    {
      "bufferView": 1,
      "byteOffset": 167604,
      "componentType": 5126,
      "count": 1987,
      "max": [
        1.0,
        0.9891589879989624,
        0.9978487491607666
      ],
      "min": [
        -0.998802661895752,
        -1.0,
        -1.0
      ],
      "type": "VEC3"
    },
    {
      "bufferView": 0,
      "byteOffset": 89652,
      "componentType": 5125,
      "count": 9789,
      "type": "SCALAR"
    },
    {
      "bufferView": 1,
      "byteOffset": 191448,
      "componentType": 5126,
      "count": 9070,
      "max": [
        62.0,
        -40.0,
        36.0
      ],
      "min": [
        -43.0,
        -80.32099914550781,
        -16.0
      ],
      "type": "VEC3"
    },
    {
      "bufferView": 1,
      "byteOffset": 300288,
      "componentType": 5126,
      "count": 9070,
      "max": [
        1.0,
        1.0,
        1.0
      ],
      "min": [
        -1.0,
        -1.0,
        -1.0
      ],
      "type": "VEC3"
    },
    {
      "bufferView": 0,
      "byteOffset": 128808,
      "componentType": 5125,
      "count": 49758,
      "type": "SCALAR"
    }
  ],
  "asset": {
    "extras": {
      "author": "JAZZY_123_2018 (https://sketchfab.com/JAZZY_123_2018)",
      "license": "CC-BY-4.0 (http://creativecommons.org/licenses/by/4.0/)",
      "source": "https://sketchfab.com/3d-models/create-your-superhero-suit-1996c0af31424b9985c5985aad522756",
      "title": "Create Your Superhero Suit"
    },
    "generator": "Sketchfab-11.83.0",
    "version": "2.0"
  },
  "bufferViews": [
    {
      "buffer": 0,
      "byteLength": 327840,
      "name": "floatBufferViews",
      "target": 34963
    },
    {
      "buffer": 0,
      "byteLength": 409128,
      "byteOffset": 327840,
      "byteStride": 12,
      "name": "floatBufferViews",
      "target": 34962
    }
  ],
  "buffers": [
    {
      "byteLength": 736968,
      "uri": "scene.bin"
    }
  ],
  "materials": [
    {
      "doubleSided": true,
      "name": "color_14093196",
      "pbrMetallicRoughness": {
        "baseColorFactor": [
          0.843137,
          0.0431373,
          0.54902,
          1.0
        ],
        "metallicFactor": 0.0
      }
    },
    {
      "doubleSided": true,
      "name": "color_15277357",
      "pbrMetallicRoughness": {
        "baseColorFactor": [
          0.913725,
          0.113725,
          0.176471,
          1.0
        ],
        "metallicFactor": 0.0
      }
    },
    {
      "doubleSided": true,
      "name": "color_16089887",
      "pbrMetallicRoughness": {
        "baseColorFactor": [
          0.960784,
          0.513726,
          0.121569,
          1.0
        ],
        "metallicFactor": 0.0
      }
    },
    {
      "doubleSided": true,
      "name": "color_16448250",
      "pbrMetallicRoughness": {
        "baseColorFactor": [
          0.980392,
          0.980392,
          0.980392,
          1.0
        ],
        "metallicFactor": 0.0
      }
    },
    {
      "doubleSided": true,
      "name": "color_16768282",
      "pbrMetallicRoughness": {
        "baseColorFactor": [
          1.0,
          0.866667,
          0.101961,
          1.0
        ],
        "metallicFactor": 0.0
      }
    },
    {
      "doubleSided": true,
      "name": "color_6383466",
      "pbrMetallicRoughness": {
        "baseColorFactor": [
          0.380392,
          0.403922,
          0.415686,
          1.0
        ],
        "metallicFactor": 0.0
      }
    }
  ],
  "meshes": [
    {
      "name": "Object_0",
      "primitives": [
        {
          "attributes": {
            "NORMAL": 1,
            "POSITION": 0
          },
          "indices": 2,
          "material": 0,
          "mode": 4
        }
      ]
    },
    {
      "name": "Object_1",
      "primitives": [
        {
          "attributes": {
            "NORMAL": 4,
            "POSITION": 3
          },
          "indices": 5,
          "material": 1,
          "mode": 4
        }
      ]
    },
    {
      "name": "Object_2",
      "primitives": [
        {
          "attributes": {
            "NORMAL": 7,
            "POSITION": 6
          },
          "indices": 8,
          "material": 2,
          "mode": 4
        }
      ]
    },
    {
      "name": "Object_3",
      "primitives": [
        {
          "attributes": {
            "NORMAL": 10,
            "POSITION": 9
          },
          "indices": 11,
          "material": 3,
          "mode": 4
        }
      ]
    },
    {
      "name": "Object_4",
      "primitives": [
        {
          "attributes": {
            "NORMAL": 13,
            "POSITION": 12
          },
          "indices": 14,
          "material": 4,
          "mode": 4
        }
      ]
    },
    {
      "name": "Object_5",
      "primitives": [
        {
          "attributes": {
            "NORMAL": 16,
            "POSITION": 15
          },
          "indices": 17,
          "material": 5,
          "mode": 4
        }
      ]
    }
  ],
  "nodes": [
    {
      "children": [
        1
      ],
      "matrix": [
        1.0,
        0.0,
        0.0,
        0.0,
        0.0,
        2.220446049250313e-16,
        -1.0,
        0.0,
        0.0,
        1.0,
        2.220446049250313e-16,
        0.0,
        0.0,
        0.0,
        0.0,
        1.0
      ],
      "name": "Sketchfab_model"
    },
    {
      "children": [
        2,
        3,
        4,
        5,
        6,
        7
      ],
      "name": "tinker.obj.cleaner.materialmerger.gles"
    },
    {
      "mesh": 0,
      "name": "Object_2"
    },
    {
      "mesh": 1,
      "name": "Object_3"
    },
    {
      "mesh": 2,
      "name": "Object_4"
    },
    {
      "mesh": 3,
      "name": "Object_5"
    },
    {
      "mesh": 4,
      "name": "Object_6"
    },
    {
      "mesh": 5,
      "name": "Object_7"
    }
  ],
  "scene": 0,
  "scenes": [
    {
      "name": "Sketchfab_Scene",
      "nodes": [
        0
      ]
    }
  ]
}
